HIERARCHY
ROOT SpineBase
{
  OFFSET 0.000000 0.000000 0.000000
  CHANNELS 6 Xposition Yposition Zposition Zrotation Xrotation Yrotation
  JOINT SpineMid
  {
    OFFSET 0.000000 27.161191 0.000000
    CHANNELS 3 Zrotation Xrotation Yrotation
    JOINT SpineShoulder
    {
      OFFSET -0.356299 20.229397 -0.622074
      CHANNELS 3 Zrotation Xrotation Yrotation
      JOINT Neck
      {
        OFFSET -0.139952 6.696640 -0.425628
        CHANNELS 3 Zrotation Xrotation Yrotation
        JOINT Head
        {
          OFFSET 2.415006 12.364808 0.408462
          CHANNELS 3 Zrotation Xrotation Yrotation
          End Site
          {
            OFFSET 0 0 0
          }
        }
      }
      JOINT ShoulderLeft
      {
        OFFSET -11.282852 -2.782571 -8.539547
        CHANNELS 3 Zrotation Xrotation Yrotation
        JOINT ElbowLeft
        {
          OFFSET -6.049253 -21.389027 -2.279654
          CHANNELS 3 Zrotation Xrotation Yrotation
          JOINT WristLeft
          {
            OFFSET -0.991919 -20.682356 -7.514125
            CHANNELS 3 Zrotation Xrotation Yrotation
            JOINT HandLeft
            {
              OFFSET -0.565797 -3.858415 -0.454646
              CHANNELS 3 Zrotation Xrotation Yrotation
              JOINT HandTipLeft
              {
                OFFSET 1.543111 -4.819162 -1.084458
                CHANNELS 3 Zrotation Xrotation Yrotation
                End Site
                {
                  OFFSET 0 0 0
                }
              }
              JOINT ThumbLeft
              {
                OFFSET 2.551428 -1.235888 -1.159531
                CHANNELS 3 Zrotation Xrotation Yrotation
                End Site
                {
                  OFFSET 0 0 0
                }
              }
            }
          }
        }
      }
      JOINT ShoulderRight
      {
        OFFSET 11.459538 -3.931280 2.972701
        CHANNELS 3 Zrotation Xrotation Yrotation
        JOINT ElbowRight
        {
          OFFSET 2.190601 -21.556161 3.340507
          CHANNELS 3 Zrotation Xrotation Yrotation
          JOINT WristRight
          {
            OFFSET 2.099935 -21.894111 -3.803713
            CHANNELS 3 Zrotation Xrotation Yrotation
            JOINT HandRight
            {
              OFFSET -0.772245 -9.295128 -1.658263
              CHANNELS 3 Zrotation Xrotation Yrotation
              JOINT HandTipRight
              {
                OFFSET -0.182830 -5.478033 -2.959005
                CHANNELS 3 Zrotation Xrotation Yrotation
                End Site
                {
                  OFFSET 0 0 0
                }
              }
              JOINT ThumbRight
              {
                OFFSET 0.480938 -0.560769 -3.424755
                CHANNELS 3 Zrotation Xrotation Yrotation
                End Site
                {
                  OFFSET 0 0 0
                }
              }
            }
          }
        }
      }
    }
  }
  JOINT HipLeft
  {
    OFFSET -5.400034 1.039538 -5.167539
    CHANNELS 3 Zrotation Xrotation Yrotation
    JOINT KneeLeft
    {
      OFFSET -6.717165 -28.520966 -2.005632
      CHANNELS 3 Zrotation Xrotation Yrotation
      JOINT AnkleLeft
      {
        OFFSET -6.937687 -29.974924 5.926187
        CHANNELS 3 Zrotation Xrotation Yrotation
        JOINT FootLeft
        {
          OFFSET 4.388410 -6.740491 -1.402674
          CHANNELS 3 Zrotation Xrotation Yrotation
          End Site
          {
            OFFSET 0 0 0
          }
        }
      }
    }
  }
  JOINT HipRight
  {
    OFFSET 5.144028 0.541828 -0.889646
    CHANNELS 3 Zrotation Xrotation Yrotation
    JOINT KneeRight
    {
      OFFSET -4.660052 -29.106716 2.489717
      CHANNELS 3 Zrotation Xrotation Yrotation
      JOINT AnkleRight
      {
        OFFSET -8.871945 -33.759517 3.881410
        CHANNELS 3 Zrotation Xrotation Yrotation
        JOINT FootRight
        {
          OFFSET 4.176400 -2.678701 -7.769104
          CHANNELS 3 Zrotation Xrotation Yrotation
          End Site
          {
            OFFSET 0 0 0
          }
        }
      }
    }
  }
}
MOTION
Frames: 7
Frame Time: 0.033333
-5.423880 72.746147 363.476808 -14.607881 -1.721028 0.901683 -1.506690 0.573149 -1.543001 0.102717 -0.054277 -0.540954 23.311934 19.940266 -4.435533 0.000000 0.000000 0.000000 123.777594 18.065710 -66.404318 75.203577 14.860262 29.293237 -3.712736 23.403097 168.231457 -6.684588 -3.748828 172.315825 0.000000 0.000000 0.000000 0.000000 0.000000 0.000000 145.725023 71.276939 -91.087221 121.884559 -21.056675 139.708156 -57.371126 -13.568449 51.122141 18.600375 -57.603845 -70.420139 0.000000 0.000000 0.000000 0.000000 0.000000 0.000000 47.414194 8.418112 -8.860665 -21.264645 3.782611 1.253031 -4.963535 21.277506 19.419611 0.000000 0.000000 0.000000 21.754796 26.180036 -6.686972 11.629606 -17.623994 8.856820 -17.679522 -2.161608 8.972849 0.000000 0.000000 0.000000
-5.888808 72.446894 362.508493 -16.211719 -2.934577 8.669518 -1.373915 0.714816 -9.563691 0.006273 0.039457 -0.586287 15.081620 19.860203 -2.009718 0.000000 0.000000 0.000000 116.182911 13.146128 -47.636803 75.880330 -3.673996 41.635293 8.262315 21.451063 101.352610 -7.743208 -2.609615 -124.152622 0.000000 0.000000 0.000000 0.000000 0.000000 0.000000 149.871102 67.905128 -90.226862 107.259689 -31.984170 121.660624 -52.823733 -10.767987 33.350141 37.410695 -44.930244 -53.823550 0.000000 0.000000 0.000000 0.000000 0.000000 0.000000 49.179176 4.318722 -15.360939 -19.396766 1.913816 2.034361 -5.202879 16.689214 15.623154 0.000000 0.000000 0.000000 26.080630 16.607586 -12.900938 10.572482 -7.598639 4.558206 -19.569186 -8.101157 8.193297 0.000000 0.000000 0.000000
-6.376314 71.489796 360.602076 -17.587459 -4.370531 14.749682 -1.278533 0.540908 -16.002644 -0.082294 0.022278 -0.639338 4.946187 25.180408 0.575474 0.000000 0.000000 0.000000 111.079074 5.781502 -31.616300 63.661266 -22.499903 37.113059 8.968454 12.714648 72.583886 3.014136 -12.261882 -103.036191 0.000000 0.000000 0.000000 0.000000 0.000000 0.000000 137.935908 64.092439 -72.252587 104.008888 -49.025861 119.021588 -28.568265 -13.024153 28.722395 23.480576 -19.370105 -56.927736 0.000000 0.000000 0.000000 0.000000 0.000000 0.000000 49.842243 -0.748780 -19.451256 -17.896149 3.500752 1.986740 -3.131654 11.745803 12.028066 0.000000 0.000000 0.000000 29.146991 8.252655 -17.253220 9.040088 0.118639 1.047525 -18.861015 -11.643199 2.448973 0.000000 0.000000 0.000000
-6.459508 70.486068 358.446374 -20.448454 -4.716353 17.440389 -1.071890 0.175938 -19.033762 -0.058946 -0.004879 -0.732278 -3.518062 23.483689 3.934096 0.000000 0.000000 0.000000 106.411072 -1.185568 -17.049360 44.230277 -31.456649 14.174181 0.689285 -3.528786 79.904419 19.150822 -27.851810 -106.349120 0.000000 0.000000 0.000000 0.000000 0.000000 0.000000 110.065758 59.997070 -42.326073 137.493568 -69.698717 157.796788 -24.831129 8.705713 19.357594 31.074879 -17.212737 -43.980146 0.000000 0.000000 0.000000 0.000000 0.000000 0.000000 49.973327 -4.805694 -19.890877 -15.206570 5.997771 1.683269 -5.995327 6.756900 9.584848 0.000000 0.000000 0.000000 32.433710 3.363470 -18.685482 7.787982 2.545877 -0.166553 -17.573521 -13.329594 -3.848556 0.000000 0.000000 0.000000
-5.893329 68.805663 356.381082 -21.591199 -4.620030 30.427553 -0.831322 0.087928 -32.132198 -0.001621 -0.119804 -0.784795 -12.153958 19.737891 6.250496 0.000000 0.000000 0.000000 93.538095 -7.359216 -4.300384 35.902340 -32.661601 -6.643401 -1.659613 -2.300261 60.859064 30.050256 -30.154454 -85.367445 0.000000 0.000000 0.000000 0.000000 0.000000 0.000000 65.951056 36.702657 -6.693244 -15.482415 -79.145123 -4.646026 -8.500430 13.472958 9.925350 26.489358 -3.425183 -39.470609 0.000000 0.000000 0.000000 0.000000 0.000000 0.000000 46.825416 -15.371544 -28.002167 -12.999031 7.304155 1.377525 -1.834528 -5.534878 2.514501 0.000000 0.000000 0.000000 31.867968 -5.325292 -29.194092 8.833827 0.943564 0.756459 -17.099624 -11.242812 -9.262045 0.000000 0.000000 0.000000
-4.098113 67.084369 353.752454 -23.490908 -4.787870 22.724179 -0.835616 0.134077 -24.579475 -0.076410 -0.132748 -0.858882 -12.518667 20.109836 6.963990 0.000000 0.000000 0.000000 79.836087 -14.029514 4.879740 37.517855 -32.289824 -23.705313 -2.098715 0.933364 48.667815 36.544631 -29.897374 -71.297237 0.000000 0.000000 0.000000 0.000000 0.000000 0.000000 38.357681 20.171322 0.857694 -13.635726 -72.044446 -12.546093 13.938853 9.316890 -1.792101 -8.918203 29.198472 -8.219413 0.000000 0.000000 0.000000 0.000000 0.000000 0.000000 45.401005 -12.738487 -21.175797 -9.679328 10.868527 0.420252 -5.239627 -0.522776 4.787648 0.000000 0.000000 0.000000 29.588873 -2.320811 -22.687829 12.335547 2.561394 0.576069 -14.990409 -8.532064 -9.686600 0.000000 0.000000 0.000000
-3.083170 65.521432 352.410819 -24.101119 -3.838487 14.780260 -0.979125 0.143043 -16.449574 -0.215634 -0.266575 -0.921901 -15.163672 15.146977 6.819404 0.000000 0.000000 0.000000 72.334254 -19.010189 9.884625 37.165051 -34.066608 -28.344333 0.043300 4.071031 40.206466 35.596757 -34.851298 -63.023724 0.000000 0.000000 0.000000 0.000000 0.000000 0.000000 25.965091 10.833692 1.248445 -7.202585 -69.768713 -12.640034 52.019334 -43.188834 -14.072936 -103.913272 17.665479 85.334084 0.000000 0.000000 0.000000 0.000000 0.000000 0.000000 44.796708 -9.466919 -14.043276 -7.953370 12.118119 0.044970 -3.211671 10.550040 9.355003 0.000000 0.000000 0.000000 28.016948 1.247701 -15.527474 13.510116 1.082956 1.354388 -16.075474 -8.743396 -7.714011 0.000000 0.000000 0.000000
